<svg width="35" height="35" viewBox="0 0 48 48" fill="#fff" xmlns="http://www.w3.org/2000/svg" style="fill-opacity: 0.75;"><path fill-rule="evenodd" clip-rule="evenodd" d="M8.99767 11.4934C9.0013 10.1153 10.1195 9 11.4977 9H36.5029C37.8811 9 38.9993 10.1152 39.0029 11.4934L39.0587 32.4934C39.0623 33.8767 37.942 35 36.5587 35H29.2111L25.9354 39.0039C24.9352 40.2264 23.0659 40.2265 22.0656 39.004L18.7895 35H11.4424C10.0591 35 8.93875 33.8767 8.94239 32.4934L8.99767 11.4934ZM11.9964 12L11.9437 32H20.2111L24.0005 36.6312L27.7895 32H36.0573L36.0043 12H11.9964Z"></path><path d="M18 22C18 21.4477 18.4477 21 19 21H29C29.5523 21 30 21.4477 30 22V23C30 23.5523 29.5523 24 29 24H19C18.4477 24 18 23.5523 18 23V22Z"></path></svg>